<svg xmlns="http://www.w3.org/2000/svg" xml:space="preserve" width="700mm" height="700mm" viewBox="0 0 700 700"><g style="display:inline;fill:#d0c4df;fill-opacity:1"><g style="fill:#82c8c2;fill-opacity:1"><path d="M60.12 9.78s.688.355.954 1.536c.093.416-.036.813-.054 1.11-.027.458 0 .65.322 1.06.188.24.626.687.065 1.006-.12.068-.29.091-.18.356.07.168.024.296-.023.36-.209.285-.858-.009-.858-.009s.381-.023.535-.165c.045-.043-.044-.226-.05-.305a.6.6 0 0 1 .065-.289.7.7 0 0 1 .229-.18c.04-.017.17-.07.192-.164.02-.084-.087-.185-.145-.273-.115-.175-.347-.405-.474-.89-.081-.308.019-.817.05-1.11a1.6 1.6 0 0 0-.065-.624c-.148-.499-.384-.885-.734-1.193-.35-.307.103-.304.103-.304z" style="display:inline;fill:#82c8c2;fill-opacity:1;stroke:none;stroke-width:.0566325;stroke-linecap:butt;stroke-linejoin:round;stroke-dasharray:none;stroke-opacity:1" transform="matrix(42.25252 0 0 42.25252 -2064.576 -293.38)"/><path d="M57.779 15.864c.262.122.346.234.908.376.48.113.9.187 1.342.275.48.036.526-.048.56-.295-.01-.152-.064-.335-.026-.45a.5.5 0 0 1 .182-.246s.053-.031.007-.072a2.4 2.4 0 0 0-.384-.248l.604.03.087.034c.056.06.072.12.084.18a.2.2 0 0 1-.067.19.8.8 0 0 0-.124.13c-.032.046-.058.113-.03.179.023.147.016.264.005.392-.116.467-.448.612-.915.538l-.66-.125c-.258-.035-.443.084-.601.26-.125.152-.165.324-.207.496a1.5 1.5 0 0 0-.014.338l-.32-.42c.05-.433.224-.707.492-.864-.57-.175-.78-.478-.923-.698M60.29 12.434s-.13-.029-.31.05c-.181.078-.395.206-.432.234-.038.028-.136.074-.055-.026s.351-.301.541-.373.374-.053.42-.016c.047.037.088.094.086.13s-.03.05-.06.047-.19-.046-.19-.046M59.578 13.219c.355.389.755.374 1.04.237-.13-.042-.216-.154-.234-.338-.1.11-.088.282-.806.101" style="display:inline;fill:#82c8c2;fill-opacity:1;stroke:none;stroke-width:.0566325;stroke-linecap:butt;stroke-linejoin:round;stroke-dasharray:none;stroke-opacity:1" transform="matrix(42.25252 0 0 42.25252 -2064.576 -293.38)"/><path d="M58.807 9.517s-.085 1.596-3.915 2.936c-2.022.708-3.14 1.661-3.675 2.553-.478.796-.474 1.575-.474 1.575s.256-.967 1.228-1.81c.72-.627 2.147-1.165 2.517-1.297 2.646-.94 4.101-1.518 4.68-3.68 0 0 .406 2.572-3.63 3.789-3.818 1.151-4.308 2.449-4.688 3.87-.057.211-.05 1.261.242 1.976.334.812.97 1.45.97 1.45s-.93-1.599-.538-3.064c.425-1.585 1.658-2.454 3.097-3.114.78-.357 1.42-.567 1.42-.567s-3.085 1.298-3.83 3.042c-.744 1.745.043 3.277.575 3.787.35.337.8.643 1.142.735.584.156 1.156.116 1.156.116s-2.615-.579-2.181-3.202c.408-2.468 4.023-3.293 5.627-5.01 1.809-1.936 1.532-3.191 1.532-3.447 0-.255-.49-1.021-.49-1.021z" style="display:inline;fill:#82c8c2;fill-opacity:1;stroke:none;stroke-width:.0566325;stroke-linecap:butt;stroke-linejoin:round;stroke-dasharray:none;stroke-opacity:1" transform="matrix(42.25252 0 0 42.25252 -2064.576 -293.38)"/><path d="M62.61 8.636c.315 0 .32.049.32.177 0 .112-.026.154-.2.154a3.08 3.08 0 0 0-2.17 1.031.15.15 0 0 0-.01.171l-.911-.458-.426-.218-.418.098c.006-.025.01-.044.012-.074l-.003-.269c.005-.184-.18-.291-.246-.291-.092 0-.102-.085-.102-.166 0-.087.017-.144.111-.144z" style="fill:#82c8c2;fill-opacity:1;stroke-width:.0566325;stroke-linejoin:round" transform="matrix(42.25252 0 0 42.25252 -2064.576 -293.38)"/><path d="M55.105 16.443c.284-.217.569-.357.853-.529.502-.29 1.198-.586 2.087-1.295a7 7 0 0 1-1.327 1.324c.8.618 1.284 1.226 1.49 1.433.562.561 1.352 1.59 1.914 2.151.838.864 1.634 1.603 2.585 1.824.359.086.524.094.695.11.132 0 .147.122.147.166 0 .083-.034.179-.185.179H60.76c-.601 0-1.386-.384-2.132-1.168-1.089-1.2-1.94-2.307-3.523-4.195" style="display:inline;fill:#82c8c2;fill-opacity:1;stroke-width:.0566325;stroke-linejoin:round" transform="matrix(42.25252 0 0 42.25252 -2064.576 -293.38)"/><path d="M54.253 17.156c-.015 1.285-.012 2.734.099 3.47.055.413.17.642.59.733.264.055.528.074.792.105.165 0 .182.108.182.173 0 .075-.032.177-.15.177h-.74l-.75-.133-.642-.325-.144-.428c-.882-1.47-.012-3.078.763-3.772M52.296 11.97l.007 1.375a7.2 7.2 0 0 1 1.953-1.057v-1.69c0-1.497.347-1.615 1.245-1.615.137 0 .17-.055.169-.17 0-.133-.058-.178-.179-.178h-4.605a.137.137 0 0 0-.139.139c0 .152.036.2.2.2 1.162 0 1.343.443 1.343 1.343z" style="fill:#82c8c2;fill-opacity:1;stroke-width:.0566325;stroke-linejoin:round" transform="matrix(42.25252 0 0 42.25252 -2064.576 -293.38)"/></g></g></svg>